<svg width="11" height="14" viewBox="0 0 11 14" fill="none" xmlns="http://www.w3.org/2000/svg">
<path d="M2.2 4.06254H8.8C9.71127 4.06254 10.45 4.80127 10.45 5.71254V10.944C10.45 11.8553 9.71127 12.594 8.8 12.594H2.2C1.28873 12.594 0.55 11.8553 0.55 10.944V5.71254C0.55 4.80127 1.28873 4.06254 2.2 4.06254Z" stroke="#858D8F" stroke-width="1.1"/>
<path d="M7.61553 5.60635C7.61553 4.38467 7.39266 3.21302 6.99595 2.34917C6.59924 1.48531 6.06119 1 5.50015 1C4.93912 1 4.40106 1.48531 4.00435 2.34917C3.60764 3.21302 3.38477 4.38467 3.38477 5.60634" stroke="#858D8F" stroke-width="1.1"/>
<ellipse rx="0.846154" ry="0.837517" transform="matrix(-1 0 0 1 3.38456 6.02508)" fill="#858D8F"/>
<ellipse rx="0.846154" ry="0.837517" transform="matrix(-1 0 0 1 7.61527 6.02508)" fill="#858D8F"/>
</svg>
