<svg width="837" height="685" viewBox="0 0 837 685" fill="none" xmlns="http://www.w3.org/2000/svg">
<path d="M262.646 129C213.846 156.6 169.167 217.667 152.5 242.5L688 249.5C670.4 206.3 604.313 149.5 574.646 129H262.646Z" fill="#0E6D29" stroke="#0E6D29" stroke-linejoin="round"/>
<path d="M570.647 236L155.647 239C131.147 253 137.647 573.5 138.147 611.5C138.547 641.9 161.313 652.833 172.647 654.5C529.147 666 641.647 657 670.647 652C693.847 648 698.647 619 698.147 605C706.647 532 692.147 272.5 689.647 255.5C687.647 241.9 677.813 238.833 673.147 239L570.647 236Z" fill="#118834" stroke="#118834" stroke-linejoin="round"/>
<path d="M462.646 129H381.146L363.646 236.5H480.146L462.646 129Z" fill="#C8C8C8" stroke="#C8C8C8" stroke-linejoin="round"/>
<path d="M480.146 236H363.646L354.646 343H489.146L480.146 236Z" fill="#FAFAFA" stroke="#FAFAFA" stroke-linejoin="round"/>
<g filter="url(#filter0_d_1304_43)">
<path d="M403.231 319.845C415.928 308.47 435.539 309.942 446.396 323.086L452.57 330.559C459.854 339.376 471.569 343.202 482.653 340.382V340.382C501.946 335.474 520.477 350.65 519.469 370.533L518.844 382.858C518.319 393.208 523.171 403.098 531.679 409.016L533.603 410.354C549.263 421.248 550.919 443.796 537.02 456.861L526.322 466.917C518.673 474.107 515.336 484.773 517.525 495.041L517.848 496.56C522.25 517.214 504.51 535.835 483.667 532.438L478.534 531.602C466.938 529.712 455.306 534.762 448.769 544.525L447.807 545.961C435.694 564.05 408.955 563.629 397.417 545.168L396.589 543.844C390.691 534.406 380.053 529.007 368.953 529.817L358.96 530.547C338.934 532.008 323.269 513.574 327.942 494.047V494.047C330.707 482.494 326.315 470.405 316.779 463.321L312.024 459.789C295.992 447.88 295.847 423.926 311.733 411.823L317.361 407.535C326.603 400.493 330.95 388.75 328.522 377.388L327.963 374.772C323.472 353.764 341.864 334.978 362.963 339.022L363.898 339.201C373.099 340.965 382.596 338.331 389.574 332.079L403.231 319.845Z" fill="#E6BF00"/>
<path d="M445.625 323.722L451.799 331.196C459.329 340.311 471.441 344.266 482.899 341.351C501.54 336.609 519.445 351.272 518.47 370.482L517.845 382.807C517.303 393.503 522.317 403.721 531.108 409.837L533.032 411.175C548.17 421.706 549.771 443.502 536.335 456.132L525.638 466.188C517.733 473.618 514.285 484.639 516.547 495.249L516.87 496.768C521.125 516.735 503.976 534.735 483.828 531.451L478.695 530.615C466.713 528.662 454.693 533.881 447.938 543.968L446.976 545.405C435.266 562.891 409.419 562.484 398.265 544.638L397.437 543.314C391.342 533.561 380.35 527.983 368.88 528.82L358.887 529.549C339.536 530.962 324.399 513.149 328.914 494.28C331.772 482.337 327.232 469.841 317.375 462.518L312.621 458.987C297.123 447.474 296.982 424.319 312.339 412.618L317.967 408.33C327.517 401.054 332.009 388.919 329.5 377.179L328.941 374.563C324.6 354.254 342.378 336.095 362.775 340.004L363.71 340.183C373.217 342.006 383.031 339.284 390.241 332.824L403.898 320.59C416.173 309.594 435.13 311.017 445.625 323.722Z" stroke="#E6BF00" stroke-width="2"/>
</g>
<rect x="476.074" y="389" width="25.1103" height="123.377" rx="12.5551" transform="rotate(44.6971 476.074 389)" fill="#FAFAFA"/>
<rect x="423.875" y="474.373" width="26.0901" height="70.5422" rx="13.0451" transform="rotate(133.987 423.875 474.373)" fill="#FAFAFA"/>
<path d="M35.6157 462.296C36.2465 460.523 38.7535 460.523 39.3843 462.296L47.3203 484.6C47.5159 485.15 47.9417 485.587 48.4862 485.797L70.1497 494.133C71.8586 494.791 71.8586 497.209 70.1497 497.867L48.4862 506.203C47.9417 506.413 47.5159 506.85 47.3203 507.4L39.3843 529.704C38.7535 531.477 36.2465 531.477 35.6157 529.704L27.6797 507.4C27.4841 506.85 27.0583 506.413 26.5138 506.203L4.85027 497.867C3.14136 497.209 3.14136 494.791 4.85028 494.133L26.5138 485.797C27.0583 485.587 27.4841 485.15 27.6797 484.6L35.6157 462.296Z" fill="#FEE13F"/>
<path d="M607.616 5.29588C608.246 3.52312 610.754 3.52313 611.384 5.29589L619.32 27.6005C619.516 28.1502 619.942 28.587 620.486 28.7966L642.15 37.1334C643.859 37.7911 643.859 40.2089 642.15 40.8666L620.486 49.2034C619.942 49.413 619.516 49.8498 619.32 50.3995L611.384 72.7041C610.754 74.4769 608.246 74.4769 607.616 72.7041L599.68 50.3995C599.484 49.8498 599.058 49.413 598.514 49.2034L576.85 40.8666C575.141 40.2089 575.141 37.7911 576.85 37.1334L598.514 28.7966C599.058 28.587 599.484 28.1502 599.68 27.6005L607.616 5.29588Z" fill="#E5BE00"/>
<path d="M797.616 612.296C798.246 610.523 800.754 610.523 801.384 612.296L809.32 634.6C809.516 635.15 809.942 635.587 810.486 635.797L832.15 644.133C833.859 644.791 833.859 647.209 832.15 647.867L810.486 656.203C809.942 656.413 809.516 656.85 809.32 657.4L801.384 679.704C800.754 681.477 798.246 681.477 797.616 679.704L789.68 657.4C789.484 656.85 789.058 656.413 788.514 656.203L766.85 647.867C765.141 647.209 765.141 644.791 766.85 644.133L788.514 635.797C789.058 635.587 789.484 635.15 789.68 634.6L797.616 612.296Z" fill="#FDDB31"/>
<defs>
<filter id="filter0_d_1304_43" x="295.908" y="312.186" width="254.57" height="260.088" filterUnits="userSpaceOnUse" color-interpolation-filters="sRGB">
<feFlood flood-opacity="0" result="BackgroundImageFix"/>
<feColorMatrix in="SourceAlpha" type="matrix" values="0 0 0 0 0 0 0 0 0 0 0 0 0 0 0 0 0 0 127 0" result="hardAlpha"/>
<feOffset dy="9"/>
<feGaussianBlur stdDeviation="2"/>
<feComposite in2="hardAlpha" operator="out"/>
<feColorMatrix type="matrix" values="0 0 0 0 0.0588235 0 0 0 0 0.494118 0 0 0 0 0.192157 0 0 0 1 0"/>
<feBlend mode="normal" in2="BackgroundImageFix" result="effect1_dropShadow_1304_43"/>
<feBlend mode="normal" in="SourceGraphic" in2="effect1_dropShadow_1304_43" result="shape"/>
</filter>
</defs>
</svg>
