<svg width="675" height="391" viewBox="0 0 675 391" fill="none" xmlns="http://www.w3.org/2000/svg">
<path d="M262.5 81.5C264.9 72.3 317.5 23.6667 343.5 0.5H567C611.4 27.7 639.833 65.8333 648.5 81.5H262.5Z" fill="#0E6D29" stroke="#0E6D29" stroke-linejoin="round"/>
<path d="M114.289 153.5L173.403 152.5L262.993 154.621C271.616 154.825 278.5 161.874 278.5 170.5C278.5 179.126 271.616 186.175 262.993 186.379L173.406 188.5L82.6889 185.908C74.8318 185.683 68.4066 179.574 67.7866 171.738C67.1031 163.101 73.6804 155.603 82.3325 155.155L114.289 153.5Z" fill="#CBAB00" stroke="#CBAB00"/>
<path d="M207.211 313.499L231.874 312.501L259.997 314.094C268.698 314.587 275.5 321.786 275.5 330.5C275.5 339.214 268.698 346.413 259.997 346.906L231.881 348.499L203.181 346.536C194.839 345.966 188.283 339.175 188.007 330.818C187.728 322.393 193.922 315.146 202.288 314.109L207.211 313.499Z" fill="#CBAB00" stroke="#CBAB00"/>
<path d="M252.501 343C270.501 255.5 263.001 121 258.001 93C258.001 88.5 260.301 79.5 269.5 79.5C397.5 73.9 575.5 79.1667 648.5 82.5C695 204 663 332 661.5 337C660.3 341 658.333 358 657.5 366C656.5 372.5 647.6 385.8 620 387C562 392.2 376.167 389.167 290.501 387C275.334 388.667 246.501 382.2 252.501 343Z" fill="#118834" stroke="#118834" stroke-linejoin="round"/>
<path d="M404.999 188.5C401.799 174.9 408.332 108.833 411.999 77.5H497.5C500 110.833 504.9 179.7 504.5 188.5C504.1 197.3 497.333 200.167 494 200.5H432.5C413 200.5 408.199 202.1 404.999 188.5Z" fill="#FAFAFA" stroke="#FAFAFA" stroke-linejoin="round"/>
<path d="M412 77L424.5 0.5H485L498 77H412Z" fill="#C8C8C8" stroke="#C8C8C8" stroke-linejoin="round"/>
<path d="M198.521 233.5L247.498 232.5L318.992 234.543C327.628 234.79 334.5 241.861 334.5 250.5C334.5 259.139 327.628 266.21 318.992 266.457L247.501 268.5L175.004 266C167.036 265.725 160.572 259.459 160.05 251.503C159.488 242.931 165.996 235.532 174.57 234.997L198.521 233.5Z" fill="#E6BF00" stroke="#E6BF00"/>
<path d="M102.537 74.4992L139.052 73.5003L188.261 75.7911C196.551 76.177 203.114 82.9405 203.25 91.2389C203.386 99.5526 197.026 106.535 188.735 107.173L171.481 108.5H139.066L89.1077 106.565C81.1455 106.257 74.7712 99.8555 74.4966 91.8921C74.2245 84.0015 80.0355 77.2149 87.8739 76.2688L102.537 74.4992Z" fill="#E6BF00" stroke="#E6BF00"/>
<path d="M40.0207 313.5L88.998 312.5L160.492 314.543C169.128 314.79 176 321.861 176 330.5C176 339.139 169.128 346.21 160.492 346.457L89.0014 348.5L16.5036 346C8.53594 345.725 2.07213 339.459 1.55047 331.503C0.98835 322.931 7.49632 315.532 16.0704 314.997L40.0207 313.5Z" fill="#E6BF00" stroke="#E6BF00"/>
<path d="M63.5 91.5C63.5 101.717 54.7173 110.5 44.5 110.5C34.2827 110.5 25 102.217 25 92C25 81.7827 33.7827 73 44 73C54.2173 73 63.5 81.2827 63.5 91.5Z" fill="#FED500"/>
<path d="M149.5 249.5C149.5 259.717 140.717 268.5 130.5 268.5C120.283 268.5 111 260.217 111 250C111 239.783 119.783 231 130 231C140.217 231 149.5 239.283 149.5 249.5Z" fill="#FED500"/>
</svg>
