<svg width="11" height="14" viewBox="0 0 11 14" fill="none" xmlns="http://www.w3.org/2000/svg">
<path d="M2.2 4.26254H8.8C9.60081 4.26254 10.25 4.91173 10.25 5.71254V10.944C10.25 11.7448 9.60081 12.394 8.8 12.394H2.2C1.39919 12.394 0.75 11.7448 0.75 10.944V5.71254C0.75 4.91173 1.39919 4.26254 2.2 4.26254Z" stroke="#118834" stroke-width="1.5"/>
<path d="M7.61553 5.60635C7.61553 4.38467 7.39266 3.21302 6.99595 2.34917C6.59924 1.48531 6.06119 1 5.50015 1C4.93912 1 4.40106 1.48531 4.00435 2.34917C3.60764 3.21302 3.38477 4.38467 3.38477 5.60634" stroke="#118834" stroke-width="1.5"/>
<ellipse rx="0.846154" ry="0.837517" transform="matrix(-1 0 0 1 3.38456 6.02508)" fill="#118834"/>
<ellipse rx="0.846154" ry="0.837517" transform="matrix(-1 0 0 1 7.61527 6.02508)" fill="#118834"/>
</svg>
